<svg x="0" y="0" width="30" height="85" viewBox="0 0 30 85" version="1.1" xmlns="http://www.w3.org/2000/svg" xmlns:xlink="http://www.w3.org/1999/xlink"
style="display: block;margin-left: auto;margin-right: auto;">
<path fill="#262626" fill-opacity="0.2" d="M15.3,48.9C7.7,48.9,1.5,45.5,1.5,41.3C1.5,37,7.7,33.6,15.3,33.6C22.9,33.6,29,37,29,41.3c0,4.2,-6.1,7.6,-13.7,7.6Z" />
<path fill="#F84D4D" d="M15.3,42C15.3,42,0.8,25.4,0.8,15.9C0.8,7.5,7.3,0.8,15.3,0.8c7.9,0,14.5,6.7,14.5,15.1C29.8,25.5,15.3,42,15.3,42Z" />
<path fill="none" stroke="#951212" stroke-width="1.5627639" d="M29.8,15.9C29.8,25.5,15.3,42,15.3,42C15.3,42,0.8,25.4,0.8,15.9C0.8,7.5,7.3,0.8,15.3,0.8c7.9,0,14.5,6.7,14.5,15.1Z" />
<path fill="#FFFFFF" d="M15.3,21.1c-3.2,0,-5.8,-2.6,-5.8,-5.8c0,-3.2,2.6,-5.8,5.8,-5.8c3.2,0,5.8,2.6,5.8,5.8c0,3.2,-2.6,5.8,-5.8,5.8Z" />
<path fill="none" stroke="#7C2525" stroke-width="1.5277778" d="M15.3,21.1c3.2,0,5.8,-2.6,5.8,-5.8c0,-3.2,-2.6,-5.8,-5.8,-5.8c-3.2,0,-5.8,2.6,-5.8,5.8c0,3.2,2.6,5.8,5.8,5.8Z" />
</svg>
