<svg width="30.5" height="85" xmlns="http://www.w3.org/2000/svg" xmlns:svg="http://www.w3.org/2000/svg">
  <path id="svg_1" d="m15.3,48.9c-7.6,0 -13.8,-3.4 -13.8,-7.6c0,-4.3 6.2,-7.7 13.8,-7.7c7.6,0 13.7,3.4 13.7,7.7c0,4.2 -6.1,7.6 -13.7,7.6z" fill-opacity="0.2" fill="#262626"/>
  <path id="svg_2" d="m29.8,15.9c0,9.6 -14.5,26.1 -14.5,26.1c0,0 -14.5,-16.6 -14.5,-26.1c0,-8.4 6.5,-15.1 14.5,-15.1c7.9,0 14.5,6.7 14.5,15.1z" stroke-width="1.5" stroke="#951212" fill="#ebc815"/>
  <polygon stroke="#951212" stroke-width="1.5" points="15.407496154308319,4.095477104187012 18.178874671459198,12.027613639831543 26.617965400218964,12.198708534240723 19.89167946577072,17.27213478088379 22.33594673871994,25.310012817382812 15.407496154308319,20.513423919677734 8.479043662548065,25.310012817382812 10.923308074474335,17.27213478088379 4.1970254778862,12.198708534240723 12.636115729808807,12.027613639831543 15.407496154308319,4.095477104187012 18.178874671459198,12.027613639831543 " strokeWidth="1.5" strokecolor="#951212" fill="#ffffff" orient="point" r2="13.701018" r="34.252544" point="5" shape="star" id="svg_4" cy="55.528637" cx="10.561677"/>
</svg>
